<svg xmlns="http://www.w3.org/2000/svg" version="1.1" viewBox="0 0 64 64" fill="#fff">
  <path class="st0" d="M42.7,21.9s-.2,2.2-1.6,3.5c-1,1-2.1,1.1-3.5,1.3-.8.1-2.6.3-3.1,0-.2-.2-.3-1.9-.3-2.4,0-.6-.1-1.5-.2-1.6,0,.3-.2,1-.3,1.2s-.3,1.1-.3,1.2c-.9-.2-1.8-.2-2.7,0,0-.1-.3-1-.3-1.2s-.2-.9-.3-1.2c-.1.1-.2,1-.2,1.6,0,.6,0,2.2-.3,2.4-.5.4-2.2.2-3.1,0-1.4-.2-2.5-.3-3.5-1.3-1.4-1.4-1.6-3.5-1.6-3.5H0s6.1,2,8.6,6c1.5,2.4,1.2,5.2.9,6.6,5.5-.3,10-.3,14.6,1.3,6.1,2.2,7.3,6.7,7.9,8.2.6-1.5,1.8-6.1,7.9-8.2,4.5-1.6,9.1-1.6,14.6-1.3-.4-1.4-.6-4.2.9-6.6,2.5-4,8.6-6,8.6-6h-21.3Z"/>
</svg>
