<?xml version="1.0" encoding="UTF-8"?>
<svg id="Layer_1" xmlns="http://www.w3.org/2000/svg" baseProfile="tiny" version="1.2" viewBox="0 0 65 65">
  <!-- Generator: Adobe Illustrator 29.3.0, SVG Export Plug-In . SVG Version: 2.1.0 Build 146)  -->
  <path d="M64.64,9.51l-.33-1.24-1.11-.8c-.51-.36-5.21-3.61-14.84-5.67-5.66-1.21-10.87-1.8-15.95-1.8s-10.04.57-15.77,1.8C7.02,3.86,2.31,7.11,1.81,7.47l-1.11.8-.34,1.24c-.31,1.11-2.6,11.53,10,34.46,5.58,10.13,17.7,20.22,21.3,20.88l.84.15.84-.15c3.6-.66,15.73-10.74,21.3-20.88,12.6-22.93,10.31-33.34,10-34.46ZM47.15,40.63c-3.91,7.1-11.17,13.5-14.64,16.03-3.48-2.53-10.75-8.93-14.65-16.03C9.08,24.66,8.3,15.7,8.37,12.58c1.73-.89,5.09-2.37,10.2-3.46,5.09-1.08,9.48-1.59,13.84-1.59s9,.52,14.02,1.59c5.11,1.1,8.48,2.57,10.2,3.45.07,3.19-.73,12.13-9.48,28.06Z" fill="#ec1c24"/>
  <path d="M42.99,23.83h-20.98c-1.91,0-3.46,1.39-3.46,3.11s1.55,3.12,3.46,3.12h20.98c1.91,0,3.46-1.39,3.46-3.12s-1.55-3.11-3.46-3.11Z" fill="#ec1c24"/>
</svg>