<svg fill="#fff" data-name="Layer 1" xmlns="http://www.w3.org/2000/svg" viewBox="0 0 64 64">
  <path class="cls-1" d="M3.346,56.524c1.233-6.262.98-12.852.805-19.226-.324-6.27-.446-12.92-1.987-18.973,0,0,2.929.71,2.929.71.32-.317.376-.575.408-.664.031-.122.032-.148.034-.187.087,1.14.488,2.453.826,3.637,2.317,7.323,5.166,14.734,9.234,21.253.984,1.367,2.351,3.651,3.875,3.829.227-.015.631-.526.844-1.151.89-2.741.795-6.002.76-8.938-.186-4.634-.694-9.249-1.375-13.835-.679-3.643-.842-7.806-2.844-10.927.335.347,1.283.336,1.702-.127.158-.143.298-.426.297-.455,0,0-.005.111-.005.111-.012.126.041-.204-.067-.503-.054-.147-.123-.285-.222-.406-.131-.223-.632-.463-.667-.442,1.967-.232,4.094-1.277,6.05-1.865,1.262-.505,3.19-.988,4.5-1.414,2.8-.538,5.55-1.413,8.454-.786,2.736,1.088.583,4.076-.544,5.46-1.044,1.345-2.193,2.513-3.511,3.45-2.123,1.775-4.918,3.095-6.282,5.51-.005.016-.017-.08-.068-.172-.055-.091-.098-.101-.05-.081.789.267,1.869.075,2.786-.088,3.837-.716,7.463-2.538,11.436-2.879,2.397-.331,5.26.345,4.619,3.503-.695,2.603-2.264,4.618-3.707,6.724-1.936,2.606-3.861,4.987-5.93,7.362-2.769,3.318-6.521,6.646-8.324,10.296.008-.079-.127-.411-.395-.547-.252-.119-.328-.084-.34-.092,3.809-1.88,6.651-5.451,9.921-8.193,3.417-3.14,7.304-5.915,10.45-9.31.247-.268.585-.681.624-.753-.363.759.512,1.798,1.339,1.612.087-.011.169-.037.219-.059-.652.486-1.263,1.062-1.856,1.716-2.085,2.321-3.662,5.076-5.847,7.323-2.594,3.03-6.013,5.371-8.064,8.687.026-.163-.082-.579-.378-.768-.206-.137-.295-.125-.31-.135.773-.169,1.623-.56,2.435-.983,3.377-1.911,6.56-4.184,10.032-5.97,2.036-1.04,4.203-2.035,6.012-3.391.127-.095.271-.217.304-.248.006,0,.003-.008-.053.078-.029.067-.08.093-.135.407-.171.274.361,1.233.739,1.243.296.103.363.074.442.08l.092-.008c.025-.003.01,0-.005.007-.188.07-.545.25-.843.421-1.886,1.069-3.505,2.634-4.769,4.364-1.5,1.908-3.16,3.569-4.807,5.301-2.066,2.198-4.786,4.514-5.921,7.231-.025.077.004.103-.046-.063-.047-.2-.322-.386-.35-.372-.035-.012.053.002.166-.012,3.528-.856,6.627-3.46,9.841-5.317,2.664-1.627,5.402-3.14,8.081-4.718,1.979-1.085,4.055-2.387,5.969-3.583.569-.354,1.266-.886,1.753-1.242.35-.357.96-.419,1.275.018.51.723-.456,1.502-.777,1.989-.818.919-1.679,1.819-2.607,2.611-6.151,5.26-12.998,9.413-20.716,12.047-1.07.306-2.345.842-3.668.513-1.033-.248-1.514-1.49-1.275-2.35.518-2.008,1.826-3.463,2.89-5.112,2.271-3.237,4.86-6.266,7.536-9.132,1.658-2,3.99-3.262,6.23-4.447.457-.21.974-.483,1.597-.605.297-.031.371-.074.827.071.427.026.987,1.038.806,1.361-.11.741-.593,1.007-.986,1.407-5.676,4.66-11.926,8.389-18.955,10.647-1.086.364-2.69.155-2.81-1.28-.005-1.491,1.129-2.6,1.856-3.656,2.44-3.24,4.855-6.233,7.483-9.181,2.07-2.514,4.355-4.872,6.965-6.85.285-.2.759-.524,1.209-.594.22-.003.53-.142,1.181.363.501.583.412,1.075.385,1.196-.151.743-.766,1.342-1.159,1.846-6.214,6.885-13.05,13.223-21.236,17.7-.91.448-2.32.291-2.489-.977-.054-.848.149-1.124.386-1.743,1.262-2.579,2.833-4.961,4.402-7.337,2.581-3.978,5.782-7.61,9.106-10.944,1.473-1.684,3.46-3.493,3.859-5.662-.337-.145-1.176-.166-1.904.024-3.813,1.02-7.348,2.788-11.425,3.108-1.743.1-4.089.577-5.352-1.211-2.114-3.688,7.445-10.256,10.016-12.218.636-.523,1.296-1.017,1.573-1.616.012-.037-.026.105.09.295.119.182.207.199.16.188-1.391-.176-3.047.506-4.422.98-4.551,1.836-9.183,3.979-14.242,3.956-.444.018-1.49-.595-1.621-1.264-.191-.766-.072-.741-.009-1.269.05-.256.237-.801.588-1.123,1.15-1.094,2.603-.206,3.19.798,1.459,2.144,2.006,4.801,2.648,7.185,1.571,6.251,2.127,12.729,1.749,19.159-.311,3.768-.575,15.392-7.027,11.42-3.927-3.257-5.94-7.841-8.244-12.159-1.423-2.863-2.732-5.772-3.929-8.74-1.032-2.672-2.09-5.338-2.685-8.175-.083-.569-.199-1.172-.017-1.811.056-.185.157-.533.542-.924,0,0,2.042-2.077,2.042-2.077,1.555,4.189,2.146,8.556,2.516,12.878.861,10.031,1.134,19.743,1.136,29.872-.231,3.617-5.606,3.002-4.962-.612h0Z"/>
</svg>
